<svg xmlns="http://www.w3.org/2000/svg" xmlns:xlink="http://www.w3.org/1999/xlink" width="375" height="792" viewBox="0 0 375 792">
  <defs>
    <clipPath id="clip-path">
      <path id="Path_20188" data-name="Path 20188" d="M0,0H375V-792H0Z" fill="none"/>
    </clipPath>
  </defs>
  <g id="Group_16097" data-name="Group 16097" transform="translate(0 792)" clip-path="url(#clip-path)">
    <g id="Group_16094" data-name="Group 16094" transform="translate(21 -15)">
      <text id="Grocery" transform="translate(0 7)" fill="#d93e11" font-size="7" font-family="Poppins-Regular, Poppins" letter-spacing="0.029em"><tspan x="0" y="0">Grocery</tspan></text>
    </g>
    <g id="Group_16095" data-name="Group 16095" transform="translate(331 -40)">
      <path id="Path_20186" data-name="Path 20186" d="M19.25,0H2.75A2.907,2.907,0,0,0,0,2.742V14.469A2.535,2.535,0,0,0,2.539,17H19.461A2.535,2.535,0,0,0,22,14.469V2.657A2.835,2.835,0,0,0,19.25,0Z" fill="none" stroke="#949494" stroke-linecap="round" stroke-linejoin="round" stroke-width="1"/>
    </g>
    <g id="Group_16096" data-name="Group 16096" transform="translate(331 -45)">
      <path id="Path_20187" data-name="Path 20187" d="M17,3.82V1.989C17,.164,16.618-.362,14.422.235,12.809.674,3.372,3.372,3.372,3.372.465,4.5.022,5.464.022,7.655L0,9" fill="none" stroke="#949494" stroke-linejoin="round" stroke-width="1"/>
    </g>
  </g>
</svg>
