<svg xmlns="http://www.w3.org/2000/svg" xmlns:xlink="http://www.w3.org/1999/xlink" width="18" height="18" viewBox="0 0 18 18">
  <defs>
    <clipPath id="clip-path">
      <path id="Path_25074" data-name="Path 25074" d="M346.714-572.286h-6.429v-6.429A1.286,1.286,0,0,0,339-580a1.286,1.286,0,0,0-1.286,1.286v6.429h-6.429A1.286,1.286,0,0,0,330-571a1.286,1.286,0,0,0,1.286,1.286h6.429v6.429A1.286,1.286,0,0,0,339-562a1.286,1.286,0,0,0,1.286-1.286v-6.429h6.429A1.286,1.286,0,0,0,348-571,1.286,1.286,0,0,0,346.714-572.286Z" fill="none"/>
    </clipPath>
    <clipPath id="clip-path-2">
      <path id="Path_25073" data-name="Path 25073" d="M0,0H375V-792H0Z" fill="none"/>
    </clipPath>
  </defs>
  <g id="Group_20789" data-name="Group 20789" transform="translate(-330 580)" clip-path="url(#clip-path)">
    <g id="Group_20788" data-name="Group 20788" clip-path="url(#clip-path-2)">
      <path id="Path_25072" data-name="Path 25072" d="M325-585h28v28H325Z" fill="#47b6da"/>
    </g>
  </g>
</svg>
